<svg width="143" height="26" viewBox="0 0 143 26" fill="none" xmlns="http://www.w3.org/2000/svg">
<g id="hoopcut">
<path id="Vector" d="M138.453 19.8052C132.316 19.8052 130.364 17.462 130.364 14.2542V10.1257H128.048V5.74627H129.945C130.81 5.74627 131.145 5.35575 131.284 4.37943L131.535 2.62207H136.78V5.74627H143V10.1257H136.78V13.7799C136.78 15.1189 137.533 15.5094 140.015 15.5094C141.047 15.5094 142.219 15.3978 142.833 15.3142V19.4426C142.135 19.6099 140.462 19.8052 138.453 19.8052Z" fill="#FF3D00"/>
<path id="Vector_2" d="M113.507 19.8053C108.876 19.8053 106.924 17.1832 106.924 13.9195V5.74634H113.34V12.2458C113.34 13.9474 114.121 14.8679 116.408 14.8679C118.584 14.8679 120.313 13.5568 120.313 11.2974V5.74634H126.729V19.5263H120.313C120.369 18.6616 120.397 17.0437 120.397 15.6489H120.341C119.504 18.1037 117.58 19.8053 113.507 19.8053Z" fill="#FF3D00"/>
<path id="Vector_3" d="M96.0778 19.8054C89.383 19.8054 86.8167 16.1512 86.8167 12.6644C86.8167 8.73121 89.9967 5.46753 96.3288 5.46753C102.912 5.46753 105.255 8.31279 105.255 11.7717H99.732C99.7041 10.628 98.8114 9.65173 96.6077 9.65173C94.3204 9.65173 93.2325 10.8512 93.2325 12.6365C93.2325 14.4217 94.2088 15.6212 96.552 15.6212C98.8393 15.6212 99.7041 14.7007 99.7877 13.5849H105.283C105.283 16.9044 102.996 19.8054 96.0778 19.8054Z" fill="#FF3D00"/>
<path id="Vector_4" d="M65.222 25.0496V5.74648H71.6378L71.5541 8.48015H71.6099C72.363 6.58332 74.2878 5.46753 77.4956 5.46753C82.712 5.46753 85.3341 8.14542 85.3341 12.3296C85.3341 17.3507 82.2656 19.8054 77.412 19.8054C74.2599 19.8054 72.4746 18.6617 71.5541 17.1554H71.5262C71.5541 17.8249 71.6378 19.108 71.6378 19.8333V25.0496H65.222ZM75.4872 15.6212C77.8583 15.6212 78.9183 14.6449 78.9183 12.5249C78.9183 10.7396 77.8583 9.65173 75.4593 9.65173C73.0883 9.65173 71.6378 10.8233 71.6378 12.8038V13.1107C71.7214 14.5054 73.0046 15.6212 75.4872 15.6212Z" fill="white"/>
<path id="Vector_5" d="M53.5155 19.8054C46.2629 19.8054 43.6129 16.4022 43.6129 12.6644C43.6129 8.95437 46.3465 5.46753 53.5155 5.46753C60.6844 5.46753 63.4181 8.95437 63.4181 12.6644C63.4181 16.4022 60.7402 19.8054 53.5155 19.8054ZM53.5155 15.6212C56.0818 15.6212 57.0023 14.2544 57.0023 12.6644C57.0023 11.0186 56.1097 9.65173 53.5155 9.65173C50.9213 9.65173 50.0286 11.0186 50.0286 12.6644C50.0286 14.2265 50.9213 15.6212 53.5155 15.6212Z" fill="white"/>
<path id="Vector_6" d="M32.2131 19.8054C24.9605 19.8054 22.3105 16.4022 22.3105 12.6644C22.3105 8.95437 25.0442 5.46753 32.2131 5.46753C39.382 5.46753 42.1157 8.95437 42.1157 12.6644C42.1157 16.4022 39.4378 19.8054 32.2131 19.8054ZM32.2131 15.6212C34.7794 15.6212 35.6999 14.2544 35.6999 12.6644C35.6999 11.0186 34.8073 9.65173 32.2131 9.65173C29.6189 9.65173 28.7263 11.0186 28.7263 12.6644C28.7263 14.2265 29.6189 15.6212 32.2131 15.6212Z" fill="white"/>
<path id="Vector_7" d="M0.851868 19.5263V0H7.26764V6.33209C7.26764 6.91788 7.23975 8.59156 7.18396 9.67945H7.23975C8.0208 7.28051 10.0013 5.46736 14.0461 5.46736C18.8718 5.46736 20.685 7.75472 20.685 11.1858V19.5263H14.2692V12.971C14.2692 11.4368 13.544 10.4047 11.0334 10.4047C8.96922 10.4047 7.26764 11.2973 7.26764 13.4452V19.5263H0.851868Z" fill="white"/>
</g>
</svg>
